<svg width="256" height="256" viewBox="0 0 256 256" fill="none" xmlns="http://www.w3.org/2000/svg">
<circle cx="128" cy="128" r="128" fill="#888888"/>
<path d="M128 155C142.912 155 155 142.912 155 128C155 113.088 142.912 101 128 101C113.088 101 101 113.088 101 128C101 142.912 113.088 155 128 155Z" fill="#D7D7D7"/>
<path d="M137 56.621V38H119V56.621C103.162 58.6402 88.4419 65.8616 77.1518 77.1518C65.8616 88.4419 58.6402 103.162 56.621 119H38V137H56.621C58.6387 152.839 65.8597 167.559 77.1501 178.85C88.4405 190.14 103.161 197.361 119 199.379V218H137V199.379C152.839 197.361 167.559 190.14 178.85 178.85C190.14 167.559 197.361 152.839 199.379 137H218V119H199.379C197.36 103.162 190.138 88.4419 178.848 77.1518C167.558 65.8616 152.838 58.6402 137 56.621V56.621ZM128 182C98.219 182 74 157.781 74 128C74 98.219 98.219 74 128 74C157.781 74 182 98.219 182 128C182 157.781 157.781 182 128 182Z" fill="#D7D7D7"/>
</svg>
