<svg width="256" height="256" viewBox="0 0 256 256" fill="none" xmlns="http://www.w3.org/2000/svg">
<circle cx="128" cy="128" r="128" fill="#888888"/>
<path d="M82.9031 107.75V96.75H72.2156C70.0897 96.75 68.0509 95.8808 66.5477 94.3336C65.0444 92.7865 64.1999 90.688 64.1999 88.5C64.1999 86.312 65.0444 84.2135 66.5477 82.6664C68.0509 81.1192 70.0897 80.25 72.2156 80.25H82.9031V69.25C82.9031 67.062 83.7476 64.9635 85.2508 63.4164C86.754 61.8692 88.7928 61 90.9187 61C93.0446 61 95.0834 61.8692 96.5866 63.4164C98.0898 64.9635 98.9343 67.062 98.9343 69.25V80.25H109.622C111.748 80.25 113.787 81.1192 115.29 82.6664C116.793 84.2135 117.637 86.312 117.637 88.5C117.637 90.688 116.793 92.7865 115.29 94.3336C113.787 95.8808 111.748 96.75 109.622 96.75H98.9343V107.75C98.9343 109.938 98.0898 112.036 96.5866 113.584C95.0834 115.131 93.0446 116 90.9187 116C88.7928 116 86.754 115.131 85.2508 113.584C83.7476 112.036 82.9031 109.938 82.9031 107.75V107.75ZM147.028 80.25C144.902 80.25 142.863 81.1192 141.36 82.6664C139.857 84.2135 139.012 86.312 139.012 88.5C139.012 90.688 139.857 92.7865 141.36 94.3336C142.863 95.8808 144.902 96.75 147.028 96.75H184.434C186.56 96.75 188.599 95.8808 190.102 94.3336C191.605 92.7865 192.45 90.688 192.45 88.5C192.45 86.312 191.605 84.2135 190.102 82.6664C188.599 81.1192 186.56 80.25 184.434 80.25H147.028ZM66.5512 178.92C65.7637 179.675 65.132 180.586 64.6939 181.598C64.2558 182.61 64.0202 183.703 64.0012 184.81C63.9823 185.918 64.1802 187.018 64.5834 188.046C64.9865 189.073 65.5866 190.006 66.3477 190.789C67.1089 191.573 68.0155 192.19 69.0136 192.605C70.0117 193.02 71.0808 193.224 72.157 193.205C73.2333 193.185 74.2947 192.943 75.2779 192.492C76.2612 192.041 77.1461 191.391 77.8799 190.58L90.9187 177.16L103.957 190.58C105.477 192.037 107.487 192.831 109.563 192.793C111.64 192.755 113.621 191.889 115.09 190.378C116.558 188.866 117.4 186.827 117.436 184.69C117.473 182.552 116.702 180.484 115.286 178.92L102.247 165.5L115.286 152.08C116.074 151.325 116.705 150.414 117.143 149.402C117.582 148.39 117.817 147.297 117.836 146.19C117.855 145.082 117.657 143.982 117.254 142.954C116.851 141.927 116.251 140.994 115.49 140.211C114.729 139.427 113.822 138.81 112.824 138.395C111.826 137.98 110.757 137.776 109.68 137.795C108.604 137.815 107.543 138.057 106.559 138.508C105.576 138.959 104.691 139.609 103.957 140.42L90.9187 153.84L77.8799 140.42C76.3605 138.963 74.3507 138.169 72.2741 138.207C70.1975 138.245 68.2162 139.111 66.7476 140.622C65.279 142.134 64.4378 144.173 64.4011 146.31C64.3645 148.448 65.1353 150.516 66.5512 152.08L79.5899 165.5L66.5512 178.92V178.92ZM165.731 149C168.566 149 171.284 147.841 173.288 145.778C175.293 143.715 176.419 140.917 176.419 138C176.419 135.083 175.293 132.285 173.288 130.222C171.284 128.159 168.566 127 165.731 127C162.897 127 160.178 128.159 158.174 130.222C156.17 132.285 155.044 135.083 155.044 138C155.044 140.917 156.17 143.715 158.174 145.778C160.178 147.841 162.897 149 165.731 149V149ZM144.356 151.75C142.23 151.75 140.192 152.619 138.688 154.166C137.185 155.714 136.341 157.812 136.341 160C136.341 162.188 137.185 164.286 138.688 165.834C140.192 167.381 142.23 168.25 144.356 168.25H187.106C189.232 168.25 191.271 167.381 192.774 165.834C194.277 164.286 195.122 162.188 195.122 160C195.122 157.812 194.277 155.714 192.774 154.166C191.271 152.619 189.232 151.75 187.106 151.75H144.356ZM176.419 182C176.419 184.917 175.293 187.715 173.288 189.778C171.284 191.841 168.566 193 165.731 193C162.897 193 160.178 191.841 158.174 189.778C156.17 187.715 155.044 184.917 155.044 182C155.044 179.083 156.17 176.285 158.174 174.222C160.178 172.159 162.897 171 165.731 171C168.566 171 171.284 172.159 173.288 174.222C175.293 176.285 176.419 179.083 176.419 182V182Z" fill="#D7D7D7"/>
</svg>
