<svg width="256" height="256" viewBox="0 0 256 256" fill="none" xmlns="http://www.w3.org/2000/svg">
<circle cx="128" cy="128" r="128" fill="#FF6D6D"/>
<path d="M98.8889 201H156.111C157.488 201 158.819 200.367 159.86 199.217C160.9 198.066 161.581 196.475 161.776 194.737L172.517 98.8H179V84.2H171.092L161.227 59.0369C160.753 57.8234 160.023 56.8027 159.119 56.0895C158.216 55.3764 157.174 54.999 156.111 55H98.8889C96.7202 55 94.7403 56.5622 93.7675 59.0369L83.9081 84.2H76V98.8H82.4833L93.2239 194.737C93.4194 196.475 94.0999 198.066 95.1405 199.217C96.181 200.367 97.5119 201 98.8889 201V201ZM158.503 120.7H96.497L94.0422 98.8H160.952L158.503 120.7ZM103.85 186.4L101.395 164.5H153.599L151.144 186.4H103.85V186.4ZM102.425 69.6H152.575L158.297 84.2H96.703L102.425 69.6Z" fill="#FFD9D9"/>
</svg>
