<svg width="89" height="89" viewBox="0 0 89 89" fill="none" xmlns="http://www.w3.org/2000/svg">
<circle cx="44.5" cy="44.5" r="44.5" fill="#828282"/>
<path d="M44.416 57.072C43.3067 57.072 42.5173 56.816 42.048 56.304C41.6213 55.792 41.408 54.8533 41.408 53.488C41.408 51.4827 41.6 49.84 41.984 48.56C42.368 47.28 42.8587 46.2347 43.456 45.424C44.096 44.5707 44.6933 43.888 45.248 43.376C45.8027 42.8213 46.4427 42.2667 47.168 41.712C47.8933 41.1573 48.576 40.5387 49.216 39.856C49.8987 39.1733 50.4533 38.4053 50.88 37.552C51.3067 36.6987 51.52 35.7387 51.52 34.672C51.52 32.8373 50.9013 31.472 49.664 30.576C48.4693 29.6373 46.8907 29.168 44.928 29.168C43.392 29.168 42.1973 29.4027 41.344 29.872C40.5333 30.2987 39.9147 30.8107 39.488 31.408C39.0613 32.0053 38.6347 32.5173 38.208 32.944C37.824 33.3707 37.2693 33.584 36.544 33.584C35.8613 33.584 35.1573 33.328 34.432 32.816C33.7067 32.304 33.344 31.536 33.344 30.512C33.344 29.488 33.792 28.4 34.688 27.248C35.584 26.0533 36.9067 25.0507 38.656 24.24C40.4053 23.3867 42.5813 22.96 45.184 22.96C47.872 22.96 50.1973 23.4507 52.16 24.432C54.1653 25.3707 55.7013 26.6507 56.768 28.272C57.8347 29.8933 58.368 31.728 58.368 33.776C58.368 35.3973 58.0693 36.8907 57.472 38.256C56.8747 39.5787 56.1493 40.7733 55.296 41.84C54.4427 42.9067 53.5893 43.8027 52.736 44.528C51.8827 45.2533 51.2213 45.8507 50.752 46.32C49.728 47.1307 48.9813 47.9627 48.512 48.816C48.0853 49.6693 47.8293 50.5653 47.744 51.504C47.6587 52.4427 47.616 53.5307 47.616 54.768C47.616 55.3227 47.4027 55.856 46.976 56.368C46.5493 56.8373 45.696 57.072 44.416 57.072ZM44.416 70.384C43.2213 70.384 42.1973 69.9573 41.344 69.104C40.5333 68.208 40.128 67.184 40.128 66.032C40.128 64.8373 40.5547 63.8133 41.408 62.96C42.2613 62.1067 43.264 61.68 44.416 61.68C45.6533 61.68 46.6773 62.1067 47.488 62.96C48.3413 63.8133 48.768 64.8373 48.768 66.032C48.768 67.184 48.3413 68.208 47.488 69.104C46.6773 69.9573 45.6533 70.384 44.416 70.384Z" fill="white"/>
</svg>
