<svg width="256" height="256" viewBox="0 0 256 256" fill="none" xmlns="http://www.w3.org/2000/svg">
<circle cx="128" cy="128" r="128" fill="#888888"/>
<path d="M122.86 159.62C119.567 159.62 117.223 158.86 115.83 157.34C114.563 155.82 113.93 153.033 113.93 148.98C113.93 143.027 114.5 138.15 115.64 134.35C116.78 130.55 118.237 127.447 120.01 125.04C121.91 122.507 123.683 120.48 125.33 118.96C126.977 117.313 128.877 115.667 131.03 114.02C133.183 112.373 135.21 110.537 137.11 108.51C139.137 106.483 140.783 104.203 142.05 101.67C143.317 99.1367 143.95 96.2867 143.95 93.12C143.95 87.6733 142.113 83.62 138.44 80.96C134.893 78.1733 130.207 76.78 124.38 76.78C119.82 76.78 116.273 77.4767 113.74 78.87C111.333 80.1367 109.497 81.6567 108.23 83.43C106.963 85.2033 105.697 86.7233 104.43 87.99C103.29 89.2567 101.643 89.89 99.49 89.89C97.4633 89.89 95.3733 89.13 93.22 87.61C91.0667 86.09 89.99 83.81 89.99 80.77C89.99 77.73 91.32 74.5 93.98 71.08C96.64 67.5333 100.567 64.5567 105.76 62.15C110.953 59.6167 117.413 58.35 125.14 58.35C133.12 58.35 140.023 59.8067 145.85 62.72C151.803 65.5067 156.363 69.3067 159.53 74.12C162.697 78.9333 164.28 84.38 164.28 90.46C164.28 95.2733 163.393 99.7067 161.62 103.76C159.847 107.687 157.693 111.233 155.16 114.4C152.627 117.567 150.093 120.227 147.56 122.38C145.027 124.533 143.063 126.307 141.67 127.7C138.63 130.107 136.413 132.577 135.02 135.11C133.753 137.643 132.993 140.303 132.74 143.09C132.487 145.877 132.36 149.107 132.36 152.78C132.36 154.427 131.727 156.01 130.46 157.53C129.193 158.923 126.66 159.62 122.86 159.62ZM122.86 199.14C119.313 199.14 116.273 197.873 113.74 195.34C111.333 192.68 110.13 189.64 110.13 186.22C110.13 182.673 111.397 179.633 113.93 177.1C116.463 174.567 119.44 173.3 122.86 173.3C126.533 173.3 129.573 174.567 131.98 177.1C134.513 179.633 135.78 182.673 135.78 186.22C135.78 189.64 134.513 192.68 131.98 195.34C129.573 197.873 126.533 199.14 122.86 199.14Z" fill="#D7D7D7"/>
</svg>
