<svg width="256" height="256" viewBox="0 0 256 256" fill="none" xmlns="http://www.w3.org/2000/svg">
<circle cx="128" cy="128" r="128" fill="#888888"/>
<path d="M56.9231 86.6872H140.864C142.09 90.1504 144.359 93.1486 147.359 95.2692C150.358 97.3897 153.942 98.5283 157.615 98.5283C161.289 98.5283 164.872 97.3897 167.872 95.2692C170.872 93.1486 173.141 90.1504 174.367 86.6872H199.077C200.648 86.6872 202.154 86.0632 203.265 84.9524C204.376 83.8416 205 82.3351 205 80.7642C205 79.1933 204.376 77.6867 203.265 76.5759C202.154 75.4651 200.648 74.8411 199.077 74.8411H174.367C173.141 71.3779 170.872 68.3797 167.872 66.2592C164.872 64.1386 161.289 63 157.615 63C153.942 63 150.358 64.1386 147.359 66.2592C144.359 68.3797 142.09 71.3779 140.864 74.8411H56.9231C55.3522 74.8411 53.8456 75.4651 52.7348 76.5759C51.624 77.6867 51 79.1933 51 80.7642C51 82.3351 51.624 83.8416 52.7348 84.9524C53.8456 86.0632 55.3522 86.6872 56.9231 86.6872Z" fill="#D7D7D7"/>
<path d="M199.077 169.609H174.367C173.141 166.146 170.872 163.148 167.872 161.027C164.872 158.907 161.289 157.768 157.615 157.768C153.942 157.768 150.358 158.907 147.359 161.027C144.359 163.148 142.09 166.146 140.864 169.609H56.9231C55.3522 169.609 53.8456 170.233 52.7348 171.344C51.624 172.455 51 173.961 51 175.532C51 177.103 51.624 178.61 52.7348 179.72C53.8456 180.831 55.3522 181.455 56.9231 181.455H140.864C142.09 184.918 144.359 187.917 147.359 190.037C150.358 192.158 153.942 193.296 157.615 193.296C161.289 193.296 164.872 192.158 167.872 190.037C170.872 187.917 173.141 184.918 174.367 181.455H199.077C200.648 181.455 202.154 180.831 203.265 179.72C204.376 178.61 205 177.103 205 175.532C205 173.961 204.376 172.455 203.265 171.344C202.154 170.233 200.648 169.609 199.077 169.609Z" fill="#D7D7D7"/>
<path d="M199.077 122.227H115.136C113.91 118.763 111.641 115.765 108.641 113.645C105.642 111.524 102.058 110.385 98.3846 110.385C94.711 110.385 91.1276 111.524 88.1277 113.645C85.1279 115.765 82.859 118.763 81.6334 122.227H56.9231C55.3522 122.227 53.8456 122.851 52.7348 123.961C51.624 125.072 51 126.579 51 128.15C51 129.721 51.624 131.227 52.7348 132.338C53.8456 133.449 55.3522 134.073 56.9231 134.073H81.6334C82.859 137.536 85.1279 140.534 88.1277 142.655C91.1276 144.775 94.711 145.914 98.3846 145.914C102.058 145.914 105.642 144.775 108.641 142.655C111.641 140.534 113.91 137.536 115.136 134.073H199.077C200.648 134.073 202.154 133.449 203.265 132.338C204.376 131.227 205 129.721 205 128.15C205 126.579 204.376 125.072 203.265 123.961C202.154 122.851 200.648 122.227 199.077 122.227Z" fill="#D7D7D7"/>
</svg>
